<?xml version="1.0" encoding="utf-8"?>
<!-- Generator: Adobe Illustrator 19.0.0, SVG Export Plug-In . SVG Version: 6.00 Build 0)  -->
<svg version="1.1" id="Layer_1" xmlns="http://www.w3.org/2000/svg" xmlns:xlink="http://www.w3.org/1999/xlink" x="0px" y="0px"
	 viewBox="0 0 1100 470" style="enable-background:new 0 0 1100 470;" xml:space="preserve">
<style type="text/css">
	.st0{fill:#FFFFFF;}
</style>
<path id="XMLID_252_" class="st0" d="M700.5,170.8"/>
<line id="XMLID_251_" class="st0" x1="714.9" y1="182.8" x2="700.5" y2="182.8"/>
<path id="XMLID_253_" class="st0" d="M673.8,170.8"/>
<path id="XMLID_250_" class="st0" d="M673.8,182.8"/>
<polygon id="XMLID_258_" class="st0" points="714.9,182.8 714.9,182.8 700.5,182.8 "/>
<g id="XMLID_62_">
	<path id="XMLID_94_" class="st0" d="M97.4,395.7v-98h28.4v75.6h49.3c21.2,0,46.5-11.4,46.7-65.8v-0.1
		c-0.6-56.2-34.2-64.6-54.2-64.6h-55.9l-10.5-22.4h73.5c26.3,2.3,46.2,10.6,59,24.8c12.9,14.3,19.5,35.5,19.5,62.9
		c0,27.7-6,49-17.8,63.4c-11.6,14.1-28.8,22.1-52.7,24.2H97.4L97.4,395.7z"/>
	<path id="XMLID_102_" class="st0" d="M400,395.7l-63.7-90.4h48.4l1.2-0.3c14.5-3.6,22.7-14.2,23-30v-0.2v-0.2
		c-0.4-17.2-9.6-28.5-25.4-31.1l-0.8-0.1h-68v31.2l-0.2-0.3v121.4h-28.6V220.8h101.5c15.7,0.7,28.1,5.7,37.8,15.4
		c9.6,9.5,14.3,22.1,14.3,38.4c-0.6,27.7-12.4,43.7-37.1,50.2l-13.8,3.6l46.5,67.3H400L400,395.7z"/>
	<polygon id="XMLID_83_" class="st0" points="800.6,395.7 705.9,258.8 705.9,395.7 677.3,395.7 677.3,220.4 710.5,220.4 
		804.2,356.2 804.2,220.6 833.3,220.6 833.3,395.7 	"/>
	<path id="XMLID_95_" class="st0" d="M872.6,395.7v-22.4H1001v22.4H872.6z M872.6,317.6v-21.8h116.7v21.8H872.6z M872.6,243.4v-22.6
		h132l-11.4,22.6H872.6z"/>
</g>
<g id="XMLID_24_">
	<path id="XMLID_91_" class="st0" d="M95.4,199.1v-16.2h102.8v-38.2h-87.6l-15.2-12.3v-14.3H122v10.4h87.6l15.2,12.3v46l-15.2,12.3
		H95.4L95.4,199.1z M95.4,90.4v-4l15.1-12.2h114.3v16.2H95.4z"/>
	<path id="XMLID_85_" class="st0" d="M275.3,186.8V86.4l15.1-12.2h99.1l15.2,12.3v100.3l-15.2,12.3l-99.1,0.1L275.3,186.8z
		 M302,182.9l76.2-0.2V90.4H302V182.9z"/>
	<path id="XMLID_77_" class="st0" d="M575.5,199.1l-85.8-125H516l80.7,117.5V74.2h26.6V199L575.5,199.1L575.5,199.1z M455.3,199.1
		v-125h26.6V199L455.3,199.1L455.3,199.1z"/>
	<path id="XMLID_79_" class="st0" d="M700.5,182.8h-26.7V199l114.3-0.1l15.2-12.3V86.4l-15.2-12.3H673.8v16.2h102.8v92.3l-61.7,0.1
		 M700.5,102.4h-26.7v68.5h26.6v-68.5H700.5z"/>
	<line id="XMLID_248_" class="st0" x1="673.8" y1="170.8" x2="700.5" y2="170.8"/>
	<line id="XMLID_80_" class="st0" x1="700.5" y1="182.8" x2="673.8" y2="182.8"/>
	<line id="XMLID_247_" class="st0" x1="673.8" y1="90.4" x2="700.5" y2="90.4"/>
	<line id="XMLID_81_" class="st0" x1="700.5" y1="102.4" x2="673.8" y2="102.4"/>
	<polygon id="XMLID_58_" class="st0" points="979.1,199.1 965.5,162.8 890.8,162.8 877.2,199.1 851.7,199.1 898.7,74.1 924.2,74.1 
		897.1,146.6 959.4,146.6 932,74.1 957.5,74.1 1004.6,199.1 	"/>
</g>
<g id="XMLID_188_">
	<g id="XMLID_189_" transform="translate(0.000000,512.000000) scale(0.100000,-0.100000)">
		<path id="XMLID_190_" class="st0" d="M5197.1,2902.5c-41.4-21.9-125.1-93.8-173.3-148.6l-25.3-29.4l-20.8,2.1
			c-17.1,1.4-24.3,0.3-37.9-5.5c-35.2-15.7-50.6-39.7-50.9-79.4v-25.6l-32.5-29.4c-75.5-68.5-154.1-170.1-149.7-193.4
			c5.5-29.4,101.8,37.7,193.8,134.9l36.6,38.7l20.8-3.8l20.8-3.8l130.9-171.1c72.1-94.1,134.7-176.6,138.8-183.5
			c15.4-24.6,18.8-53.7,14.3-114.7c-2.7-40.7-2.7-68.8,0-111.6c4.1-59.6,2.1-79.1-11.6-107.8c-3.1-5.8-65.3-89-138.8-185.2
			l-133.6-174.6l-15.4-2.4c-8.5-1.4-17.4-3.1-19.8-4.1c-2.4-0.7-18.8,14.4-37.9,34.6c-91.9,98.9-193.1,170.4-198.9,140.3
			c-4.4-23.3,73.8-124.2,149.7-193.4l32.5-29.4v-27.7c0-24,1.4-29.4,9.6-43.8c17.8-30.5,55-47.9,86.8-40.7l13.7,3.1l28.7-32.2
			c67.7-76,173.3-158.8,196.9-154.4c29.4,5.5-36.9,101.3-135.7,195.1l-40.3,38.7l3.8,19.9l3.8,19.9l172.9,132.8
			c95,73.2,178.4,135.5,184.9,139c23.9,12.7,39.3,13.7,170.6,13.4c121.3-0.3,129.2-1,147-7.9c13.7-5.1,66.7-43.8,194.5-142
			l176-135.2l4.1-20.9l4.4-20.9l-54-53.8c-60.5-60.2-96.7-104.4-114.8-138.6c-19.8-37-13-47.9,20.2-31.8
			c38.3,18.8,116.6,84.9,168.8,142.4l29.4,32.5l24.3,0.3c28.4,0.3,45.1,7.2,63.9,26.4c16.1,16.8,24.9,43.5,21.9,66.8l-2.4,16.1
			l32.8,28.8c57.8,51.7,128.2,134.2,147.3,173.5c11.6,23.6,10.3,30.5-6.2,30.1c-26.3-0.7-85.8-46.2-166.1-127l-55.7-56.1l-12.7,3.8
			c-6.8,1.7-16.1,3.8-20.2,4.1c-10.9,1.4-274.8,345.7-285,372.4c-8.2,20.5-7.9,16.4-7.9,152.3c0,137.6-0.3,131.8,7.9,153
			c5.5,14.4,42,64.7,143.2,196.5c132.6,172.9,136,177,148.3,178.3c7.2,0.7,16.4,2.4,20.5,4.1c6.5,2.4,14.3-4.1,62.2-52.7
			c60.5-60.6,100.5-94.5,137.1-115c25.3-14.4,40-16.1,42-5.5c4.4,24-78.6,130.1-154.5,197.5l-32.8,29.1l2.1,14.4
			c1.4,8.6,0,21.2-3.4,32.5c-10.9,38-45.1,62.6-84.1,60.2l-19.8-1l-30.8,34.2c-69.7,77-170.9,156.1-194.5,151.6
			c-29.4-5.5,37.3-102,135-194.4l39-36.6l-3.8-13.4c-2.1-7.5-3.8-17.1-3.8-21.9c-0.3-7.2-27.3-29.4-174.3-142
			c-95.7-73.2-181.5-136.9-190.7-141.4c-28-12.7-45.5-14.4-105.6-10.3c-41.4,3.1-68,3.1-108,0c-58.8-4.5-81.7-2.1-108.3,11
			c-8.5,4.1-93,67.1-188,140l-172.6,132.8l-4.4,21.2l-4.1,20.9l41.7,40.1c60.8,57.5,111.1,117.4,133,158.1
			C5240.9,2910.4,5231.3,2920.7,5197.1,2902.5z"/>
	</g>
</g>
<rect id="XMLID_2_" x="455.3" y="74.1" class="st0" width="60.4" height="16.3"/>
</svg>
